<svg width="52" height="60" viewBox="0 0 52 60" fill="none" xmlns="http://www.w3.org/2000/svg">
<path d="M26 30C28.942 30 31.8179 29.1276 34.2641 27.4931C36.7103 25.8586 38.6169 23.5355 39.7427 20.8174C40.8686 18.0994 41.1631 15.1085 40.5892 12.223C40.0152 9.33757 38.5985 6.6871 36.5182 4.60679C34.4379 2.52649 31.7874 1.10978 28.902 0.535826C26.0165 -0.0381295 23.0256 0.256445 20.3076 1.3823C17.5895 2.50815 15.2664 4.41472 13.6319 6.8609C11.9974 9.30708 11.125 12.183 11.125 15.125C11.125 19.0701 12.6922 22.8536 15.4818 25.6432C18.2714 28.4328 22.0549 30 26 30ZM26 4.50001C28.1014 4.50001 30.1557 5.12315 31.9029 6.29064C33.6502 7.45813 35.012 9.11753 35.8162 11.059C36.6204 13.0005 36.8308 15.1368 36.4208 17.1978C36.0109 19.2589 34.9989 21.1521 33.513 22.638C32.0271 24.1239 30.1339 25.1359 28.0728 25.5458C26.0118 25.9558 23.8755 25.7454 21.934 24.9412C19.9925 24.137 18.3331 22.7752 17.1656 21.0279C15.9981 19.2807 15.375 17.2264 15.375 15.125C15.375 12.3071 16.4944 9.60457 18.487 7.612C20.4796 5.61942 23.1821 4.50001 26 4.50001Z" fill="black"/>
<path d="M28.125 34.25H23.875C17.6756 34.25 11.73 36.7127 7.34638 41.0964C2.96272 45.48 0.5 51.4256 0.5 57.625C0.5 58.1886 0.723884 58.7291 1.1224 59.1276C1.52091 59.5261 2.06141 59.75 2.625 59.75H49.375C49.9386 59.75 50.4791 59.5261 50.8776 59.1276C51.2761 58.7291 51.5 58.1886 51.5 57.625C51.5 51.4256 49.0373 45.48 44.6536 41.0964C40.27 36.7127 34.3244 34.25 28.125 34.25ZM4.8775 55.5C5.40003 50.8264 7.62621 46.5091 11.1307 43.3731C14.6352 40.2371 19.1722 38.5022 23.875 38.5H28.125C32.8278 38.5022 37.3648 40.2371 40.8693 43.3731C44.3738 46.5091 46.6 50.8264 47.1225 55.5H4.8775Z" fill="black"/>
</svg>
