<svg width="347" height="372" viewBox="0 0 347 372" fill="none" xmlns="http://www.w3.org/2000/svg">
<path d="M-24.1599 209.237L-3.47856 200.545C2.00646 198.24 8.17436 198.189 13.6682 200.403C19.1621 202.616 23.5319 206.914 25.8164 212.35C28.1008 217.785 28.1128 223.914 25.8497 229.388C23.5866 234.862 19.2337 239.232 13.7487 241.537L-6.93262 250.229L1.68099 270.725C3.96547 276.16 3.97744 282.289 1.71432 287.763C-0.54881 293.237 -4.9017 297.607 -10.3867 299.912C-15.8717 302.217 -22.0396 302.269 -27.5335 300.055C-33.0273 297.841 -37.3972 293.543 -39.6817 288.108L-48.2953 267.612L-68.9766 276.303C-74.4616 278.608 -80.6295 278.66 -86.1233 276.446C-91.6172 274.232 -95.987 269.935 -98.2715 264.499C-100.556 259.063 -100.568 252.934 -98.3048 247.46C-96.0417 241.987 -91.6888 237.616 -86.2038 235.311L-65.5225 226.62L-74.1361 206.124C-76.4206 200.688 -76.4326 194.559 -74.1695 189.085C-71.9063 183.612 -67.5534 179.242 -62.0684 176.936C-56.5834 174.631 -50.4155 174.58 -44.9216 176.794C-39.4278 179.007 -35.058 183.305 -32.7735 188.741L-24.1599 209.237ZM-87.9093 115.449L38.7363 62.2245L160.266 11.1503C180.965 2.45099 203.491 -0.978784 225.794 1.17334C248.097 3.32547 269.469 10.991 287.962 23.4721C306.455 35.9532 321.483 52.8532 331.677 72.6333C341.87 92.4134 346.906 114.445 346.326 136.722C345.746 159 339.568 180.815 328.354 200.181C317.141 219.547 301.249 235.849 282.124 247.603C263 259.357 241.251 266.189 218.858 267.477C196.466 268.765 174.141 264.469 153.916 254.978L90.7137 281.54C83.3402 302.628 70.7867 321.583 54.1965 336.678C37.6064 351.773 17.5063 362.528 -4.27305 367.965C-26.0524 373.401 -48.8194 373.346 -70.5007 367.804C-92.182 362.262 -112.089 351.409 -128.409 336.234C-144.729 321.06 -156.943 302.044 -163.939 280.921C-170.936 259.797 -172.492 237.235 -168.467 215.291C-164.441 193.346 -154.962 172.715 -140.892 155.277C-126.822 137.839 -108.608 124.147 -87.9093 115.449ZM-70.682 156.44C-84.4819 162.24 -96.6249 171.369 -106.005 182.995C-115.385 194.622 -121.704 208.377 -124.387 223.007C-127.069 237.638 -126.03 252.68 -121.365 266.763C-116.699 280.845 -108.554 293.522 -97.6724 303.638C-86.7907 313.753 -73.5177 320.987 -59.0622 324.68C-44.6067 328.373 -29.4278 328.407 -14.9081 324.78C-0.38839 321.153 13.011 313.98 24.0697 303.914C35.1285 293.848 43.4953 281.209 48.408 267.148L54.9974 248.318L155.178 206.216L173.24 214.686C186.723 221.017 201.607 223.884 216.536 223.029C231.465 222.173 245.966 217.62 258.718 209.786C271.469 201.952 282.067 191.085 289.544 178.175C297.022 165.264 301.143 150.721 301.532 135.868C301.92 121.016 298.565 106.327 291.77 93.139C284.975 79.9509 274.956 68.6828 262.628 60.3608C250.299 52.0388 236.051 46.9273 221.182 45.4918C206.312 44.0564 191.294 46.3426 177.494 52.1422L-70.682 156.44ZM203.335 113.63C197.85 115.935 191.682 115.986 186.188 113.773C180.694 111.559 176.324 107.261 174.04 101.826C171.755 96.3897 171.743 90.2608 174.006 84.7871C176.269 79.3134 180.622 74.9432 186.107 72.6381C191.592 70.333 197.76 70.2816 203.254 72.4954C208.748 74.7092 213.118 79.0067 215.402 84.4425C217.687 89.8784 217.699 96.0073 215.436 101.481C213.173 106.955 208.82 111.325 203.335 113.63ZM179.199 172.005C173.714 174.31 167.546 174.361 162.052 172.148C156.559 169.934 152.189 165.636 149.904 160.201C147.62 154.765 147.608 148.636 149.871 143.162C152.134 137.688 156.487 133.318 161.972 131.013C167.457 128.708 173.625 128.657 179.119 130.87C184.613 133.084 188.982 137.382 191.267 142.817C193.551 148.253 193.563 154.382 191.3 159.856C189.037 165.33 184.684 169.7 179.199 172.005ZM261.924 137.239C256.439 139.544 250.272 139.595 244.778 137.382C239.284 135.168 234.914 130.87 232.63 125.434C230.345 119.999 230.333 113.87 232.596 108.396C234.859 102.922 239.212 98.5521 244.697 96.247C250.182 93.9418 256.35 93.8905 261.844 96.1043C267.338 98.318 271.708 102.616 273.992 108.051C276.277 113.487 276.289 119.616 274.025 125.09C271.762 130.564 267.409 134.934 261.924 137.239ZM237.789 195.614C232.304 197.919 226.136 197.97 220.642 195.757C215.148 193.543 210.779 189.245 208.494 183.809C206.21 178.374 206.198 172.245 208.461 166.771C210.724 161.297 215.077 156.927 220.562 154.622C226.047 152.317 232.215 152.265 237.709 154.479C243.202 156.693 247.572 160.99 249.857 166.426C252.141 171.862 252.153 177.991 249.89 183.465C247.627 188.939 243.274 193.309 237.789 195.614Z" fill="#F06437"/>
</svg>
