<svg width="353" height="340" viewBox="0 0 353 340" fill="none" xmlns="http://www.w3.org/2000/svg">
<path d="M-26.138 178.155L-4.50486 172.216C1.23258 170.641 7.35514 171.389 12.5159 174.296C17.6766 177.203 21.4528 182.03 23.0137 187.716C24.5746 193.402 23.7924 199.481 20.8392 204.616C17.8859 209.75 13.0035 213.519 7.26606 215.094L-14.367 221.033L-8.48156 242.472C-6.92064 248.158 -7.70286 254.237 -10.6561 259.371C-13.6094 264.506 -18.4918 268.275 -24.2292 269.85C-29.9667 271.425 -36.0892 270.677 -41.2499 267.77C-46.4107 264.863 -50.1869 260.036 -51.7478 254.35L-57.6333 232.91L-79.2664 238.849C-85.0038 240.424 -91.1264 239.676 -96.2871 236.769C-101.448 233.862 -105.224 229.035 -106.785 223.349C-108.346 217.663 -107.564 211.584 -104.61 206.449C-101.657 201.315 -96.7747 197.546 -91.0373 195.971L-69.4042 190.032L-75.2897 168.593C-76.8506 162.907 -76.0684 156.828 -73.1151 151.694C-70.1619 146.559 -65.2794 142.79 -59.542 141.215C-53.8046 139.64 -47.682 140.388 -42.5213 143.295C-37.3605 146.202 -33.5843 151.029 -32.0234 156.715L-26.138 178.155ZM-77.1984 76.8973L55.2756 40.5307L182.399 5.63295C204.05 -0.311227 226.831 -0.793464 248.667 4.2302C270.503 9.25387 290.701 19.6238 307.421 34.3957C324.142 49.1677 336.853 67.8723 344.398 88.8064C351.943 109.741 354.082 132.239 350.621 154.253C347.159 176.268 338.206 197.098 324.578 214.848C310.95 232.599 293.08 246.704 272.594 255.881C252.108 265.058 229.657 269.015 207.286 267.391C184.915 265.767 163.335 258.614 144.51 246.583L78.3995 264.731C68.3557 284.687 53.4522 301.856 35.0461 314.674C16.64 327.492 -4.68416 335.553 -26.9843 338.121C-49.2844 340.69 -71.8523 337.685 -92.6328 329.381C-113.413 321.076 -131.746 307.736 -145.963 290.575C-160.179 273.413 -169.826 252.976 -174.027 231.124C-178.227 209.272 -176.848 186.699 -170.013 165.46C-163.178 144.222 -151.106 124.993 -134.895 109.525C-118.684 94.0569 -98.8498 82.8405 -77.1984 76.8973ZM-65.4275 119.776C-79.8625 123.738 -93.0858 131.217 -103.893 141.53C-114.7 151.843 -122.748 164.663 -127.304 178.823C-131.86 192.983 -132.779 208.033 -129.977 222.601C-127.175 237.17 -120.741 250.795 -111.262 262.235C-101.783 273.676 -89.5586 282.568 -75.7034 288.102C-61.8482 293.637 -46.8018 295.638 -31.9345 293.923C-17.0673 292.208 -2.85142 286.831 9.41826 278.283C21.6879 269.735 31.6218 258.286 38.315 244.98L47.2886 227.162L152.079 198.395L168.892 209.134C181.441 217.158 195.828 221.93 210.742 223.016C225.656 224.101 240.625 221.466 254.284 215.35C267.943 209.234 279.859 199.832 288.947 187.999C298.034 176.166 304.005 162.279 306.314 147.603C308.624 132.926 307.2 117.926 302.171 103.969C297.142 90.0114 288.668 77.5403 277.521 67.691C266.375 57.8418 252.909 50.9274 238.351 47.5775C223.793 44.2276 208.605 44.5486 194.17 48.5114L-65.4275 119.776ZM211.826 112.829C206.089 114.404 199.966 113.656 194.805 110.749C189.645 107.842 185.869 103.014 184.308 97.3285C182.747 91.6424 183.529 85.5636 186.482 80.4293C189.435 75.2949 194.318 71.5256 200.055 69.9506C205.793 68.3755 211.915 69.1237 217.076 72.0307C222.237 74.9376 226.013 79.765 227.574 85.4511C229.135 91.1371 228.353 97.2159 225.399 102.35C222.446 107.485 217.564 111.254 211.826 112.829ZM180.331 167.585C174.593 169.16 168.471 168.412 163.31 165.505C158.149 162.598 154.373 157.77 152.812 152.084C151.251 146.398 152.034 140.319 154.987 135.185C157.94 130.051 162.823 126.281 168.56 124.706C174.297 123.131 180.42 123.88 185.581 126.786C190.741 129.693 194.518 134.521 196.079 140.207C197.639 145.893 196.857 151.972 193.904 157.106C190.951 162.24 186.068 166.01 180.331 167.585ZM266.863 143.83C261.126 145.405 255.003 144.657 249.843 141.75C244.682 138.843 240.906 134.015 239.345 128.329C237.784 122.643 238.566 116.565 241.519 111.43C244.473 106.296 249.355 102.527 255.092 100.952C260.83 99.3765 266.952 100.125 272.113 103.032C277.274 105.939 281.05 110.766 282.611 116.452C284.172 122.138 283.39 128.217 280.436 133.351C277.483 138.486 272.601 142.255 266.863 143.83ZM235.368 198.586C229.631 200.161 223.508 199.413 218.347 196.506C213.187 193.599 209.41 188.771 207.849 183.085C206.289 177.399 207.071 171.32 210.024 166.186C212.977 161.052 217.86 157.282 223.597 155.707C229.335 154.132 235.457 154.881 240.618 157.787C245.779 160.694 249.555 165.522 251.116 171.208C252.677 176.894 251.894 182.973 248.941 188.107C245.988 193.241 241.105 197.011 235.368 198.586Z" fill="#F06437"/>
</svg>
