<svg width="268" height="380" viewBox="0 0 268 380" fill="none" xmlns="http://www.w3.org/2000/svg">
<path d="M164.559 123.433L184.958 132.769C190.368 135.246 194.581 139.75 196.671 145.292C198.762 150.834 198.557 156.96 196.103 162.321C193.649 167.683 189.147 171.841 183.586 173.881C178.026 175.921 171.862 175.677 166.452 173.2L146.054 163.864L136.801 184.08C134.347 189.441 129.845 193.599 124.284 195.64C118.724 197.68 112.56 197.435 107.15 194.959C101.74 192.483 97.5269 187.978 95.4366 182.436C93.3464 176.894 93.5507 170.768 96.0047 165.407L105.257 145.191L84.859 135.855C79.449 133.379 75.2354 128.874 73.1452 123.332C71.055 117.79 71.2593 111.665 73.7133 106.303C76.1672 100.942 80.6698 96.7836 86.2304 94.7433C91.791 92.7031 97.9543 92.948 103.364 95.4241L123.763 104.76L133.015 84.5449C135.469 79.1834 139.972 75.0252 145.532 72.9849C151.093 70.9447 157.256 71.1896 162.666 73.6657C168.076 76.1419 172.29 80.6464 174.38 86.1885C176.47 91.7305 176.266 97.8561 173.812 103.218L164.559 123.433ZM190.424 13.0192L315.337 70.1917L435.204 125.055C455.62 134.399 473.395 148.655 486.911 166.527C500.427 184.398 509.254 205.316 512.589 227.376C515.923 249.436 513.66 271.938 506.004 292.832C498.348 313.726 485.543 332.348 468.754 347.003C451.966 361.658 431.729 371.881 409.884 376.739C388.04 381.598 365.282 380.939 343.684 374.822C322.086 368.705 302.333 357.324 286.225 341.716C270.117 326.108 258.165 306.768 251.456 285.458L189.119 256.926C168.606 265.777 146.157 269.371 123.816 267.381C101.475 265.391 79.9514 257.88 61.2054 245.531C42.4594 233.183 27.0863 216.39 16.4862 196.681C5.88619 176.973 0.395742 154.975 0.51498 132.69C0.634219 110.406 6.35927 88.5427 17.1689 69.0923C27.9784 49.6418 43.5292 33.2218 62.4049 21.3272C81.2807 9.43271 102.882 2.44164 125.241 0.990548C147.601 -0.460546 170.009 3.67456 190.424 13.0192ZM171.919 53.4502C158.308 47.2204 143.368 44.4639 128.461 45.432C113.554 46.4001 99.1529 51.0619 86.5689 58.9929C73.985 66.9238 63.6182 77.872 56.4127 90.8403C49.2072 103.809 45.3918 118.385 45.3141 133.242C45.2364 148.099 48.8989 162.765 55.9679 175.904C63.0369 189.043 73.288 200.237 85.7874 208.467C98.2868 216.698 112.638 221.703 127.533 223.027C142.428 224.351 157.394 221.952 171.069 216.048L189.388 208.149L288.198 253.374L294.193 272.402C298.662 286.61 306.628 299.505 317.365 309.913C328.103 320.321 341.271 327.912 355.669 331.992C370.068 336.073 385.24 336.515 399.805 333.278C414.369 330.041 427.862 323.227 439.056 313.458C450.25 303.689 458.789 291.274 463.894 277.344C469 263.415 470.51 248.413 468.288 233.706C466.066 218.998 460.181 205.051 451.171 193.136C442.161 181.221 430.31 171.716 416.699 165.486L171.919 53.4502ZM388.941 226.133C383.531 223.656 379.318 219.152 377.227 213.61C375.137 208.068 375.341 201.942 377.795 196.581C380.249 191.219 384.752 187.061 390.313 185.021C395.873 182.98 402.036 183.225 407.446 185.702C412.856 188.178 417.07 192.682 419.16 198.224C421.25 203.766 421.046 209.892 418.592 215.253C416.138 220.615 411.636 224.773 406.075 226.813C400.514 228.854 394.351 228.609 388.941 226.133ZM329.639 247.891C324.229 245.415 320.016 240.91 317.925 235.368C315.835 229.826 316.039 223.701 318.493 218.339C320.947 212.978 325.45 208.819 331.011 206.779C336.571 204.739 342.734 204.984 348.144 207.46C353.554 209.936 357.768 214.441 359.858 219.983C361.948 225.525 361.744 231.65 359.29 237.012C356.836 242.373 352.334 246.531 346.773 248.572C341.212 250.612 335.049 250.367 329.639 247.891ZM411.233 285.236C405.823 282.76 401.609 278.255 399.519 272.713C397.429 267.171 397.633 261.046 400.087 255.684C402.541 250.323 407.043 246.165 412.604 244.124C418.165 242.084 424.328 242.329 429.738 244.805C435.148 247.281 439.361 251.786 441.452 257.328C443.542 262.87 443.337 268.996 440.883 274.357C438.43 279.718 433.927 283.877 428.366 285.917C422.806 287.957 416.643 287.712 411.233 285.236ZM351.931 306.995C346.521 304.518 342.307 300.014 340.217 294.472C338.127 288.93 338.331 282.804 340.785 277.443C343.239 272.081 347.741 267.923 353.302 265.883C358.863 263.843 365.026 264.087 370.436 266.564C375.846 269.04 380.059 273.544 382.15 279.086C384.24 284.628 384.036 290.754 381.582 296.115C379.128 301.477 374.625 305.635 369.064 307.675C363.504 309.716 357.341 309.471 351.931 306.995Z" fill="#F06437"/>
</svg>
