<svg width="361" height="364" viewBox="0 0 361 364" fill="none" xmlns="http://www.w3.org/2000/svg">
<path d="M164.244 120.894L185.2 128.902C190.758 131.025 195.252 135.25 197.693 140.647C200.135 146.043 200.324 152.169 198.219 157.677C196.115 163.185 191.888 167.624 186.47 170.017C181.052 172.41 174.886 172.561 169.328 170.437L148.372 162.429L140.436 183.197C138.332 188.705 134.105 193.144 128.687 195.537C123.269 197.93 117.103 198.081 111.545 195.957C105.987 193.833 101.493 189.608 99.0515 184.212C96.6098 178.816 96.4206 172.69 98.5253 167.182L106.461 146.414L85.5057 138.406C79.948 136.282 75.4539 132.058 73.0123 126.661C70.5707 121.265 70.3814 115.139 72.4862 109.631C74.5909 104.123 78.8173 99.6841 84.2355 97.2911C89.6537 94.8982 95.8199 94.7469 101.378 96.8707L122.333 104.878L130.269 84.1107C132.374 78.6028 136.6 74.1641 142.019 71.7711C147.437 69.3782 153.603 69.227 159.161 71.3507C164.718 73.4745 169.213 77.6994 171.654 83.0958C174.096 88.4923 174.285 94.6183 172.18 100.126L164.244 120.894ZM182.969 9.04757L311.294 58.0844L434.435 105.14C455.409 113.155 474.062 126.241 488.697 143.208C503.332 160.174 513.484 180.483 518.228 202.284C522.972 224.084 522.157 246.685 515.858 268.027C509.559 289.369 497.975 308.775 482.163 324.477C466.35 340.18 446.81 351.68 425.322 357.931C403.835 364.182 381.082 364.985 359.136 360.267C337.19 355.548 316.747 345.459 299.67 330.917C282.594 316.375 269.424 297.843 261.362 277.007L197.322 252.535C177.42 262.685 155.248 267.712 132.825 267.16C110.402 266.608 88.4407 260.494 68.9408 249.374C49.4408 238.255 33.0215 222.483 21.1783 203.496C9.33502 184.508 2.44389 162.908 1.1325 140.661C-0.178893 118.415 4.13103 96.23 13.6698 76.1259C23.2087 56.0217 37.6733 38.6373 55.7467 25.5557C73.82 12.4741 94.928 4.11095 117.148 1.22765C139.369 -1.65566 161.996 1.03261 182.969 9.04757ZM167.097 50.583C153.114 45.2397 138.028 43.4479 123.214 45.3708C108.4 47.2937 94.3275 52.8703 82.2786 61.5926C70.2296 70.315 60.587 81.906 54.2287 95.3101C47.8704 108.714 44.9986 123.505 45.8747 138.337C46.7508 153.168 51.3471 167.569 59.2449 180.227C67.1426 192.885 78.0911 203.398 91.093 210.809C104.095 218.22 118.737 222.294 133.687 222.659C148.636 223.024 163.418 219.669 176.685 212.9L194.46 203.841L295.969 242.631L303.173 261.235C308.545 275.127 317.322 287.484 328.705 297.181C340.088 306.879 353.716 313.608 368.347 316.756C382.978 319.904 398.148 319.372 412.474 315.206C426.801 311.041 439.829 303.375 450.372 292.908C460.916 282.44 468.64 269.503 472.841 255.274C477.042 241.046 477.586 225.978 474.425 211.443C471.263 196.909 464.496 183.369 454.739 172.056C444.982 160.744 432.546 152.019 418.563 146.676L167.097 50.583ZM394.755 208.979C389.198 206.855 384.704 202.631 382.262 197.234C379.82 191.838 379.631 185.712 381.736 180.204C383.841 174.696 388.067 170.257 393.485 167.864C398.903 165.471 405.07 165.32 410.627 167.444C416.185 169.567 420.679 173.792 423.121 179.189C425.563 184.585 425.752 190.711 423.647 196.219C421.542 201.727 417.316 206.166 411.898 208.559C406.48 210.952 400.313 211.103 394.755 208.979ZM336.972 234.499C331.415 232.375 326.921 228.151 324.479 222.754C322.037 217.358 321.848 211.232 323.953 205.724C326.058 200.216 330.284 195.777 335.702 193.384C341.12 190.991 347.287 190.84 352.844 192.964C358.402 195.087 362.896 199.312 365.338 204.709C367.779 210.105 367.969 216.231 365.864 221.739C363.759 227.247 359.533 231.686 354.115 234.079C348.696 236.472 342.53 236.623 336.972 234.499ZM420.795 266.53C415.237 264.406 410.743 260.181 408.301 254.785C405.86 249.389 405.67 243.263 407.775 237.755C409.88 232.247 414.106 227.808 419.524 225.415C424.943 223.022 431.109 222.871 436.667 224.995C442.224 227.118 446.718 231.343 449.16 236.74C451.602 242.136 451.791 248.262 449.686 253.77C447.581 259.278 443.355 263.717 437.937 266.11C432.519 268.503 426.352 268.654 420.795 266.53ZM363.012 292.05C357.454 289.926 352.96 285.701 350.518 280.305C348.077 274.909 347.887 268.782 349.992 263.275C352.097 257.767 356.323 253.328 361.741 250.935C367.16 248.542 373.326 248.391 378.884 250.515C384.441 252.638 388.935 256.863 391.377 262.26C393.819 267.656 394.008 273.782 391.903 279.29C389.798 284.798 385.572 289.237 380.154 291.63C374.736 294.023 368.569 294.174 363.012 292.05Z" fill="#F06437"/>
</svg>
