<svg width="79" height="79" viewBox="0 0 79 79" fill="none" xmlns="http://www.w3.org/2000/svg">
<path fill-rule="evenodd" clip-rule="evenodd" d="M39.5 59.25C50.4076 59.25 59.25 50.4076 59.25 39.5C59.25 28.5924 50.4076 19.75 39.5 19.75C28.5924 19.75 19.75 28.5924 19.75 39.5C19.75 50.4076 28.5924 59.25 39.5 59.25ZM39.5 52.6667C46.7716 52.6667 52.6667 46.7716 52.6667 39.5C52.6667 32.2282 46.7716 26.3333 39.5 26.3333C32.2282 26.3333 26.3333 32.2282 26.3333 39.5C26.3333 46.7716 32.2282 52.6667 39.5 52.6667Z" fill="#F06437"/>
<path d="M59.2507 16.458C57.4327 16.458 55.959 17.9318 55.959 19.7497C55.959 21.5676 57.4327 23.0413 59.2507 23.0413C61.0686 23.0413 62.5423 21.5676 62.5423 19.7497C62.5423 17.9318 61.0686 16.458 59.2507 16.458Z" fill="#F06437"/>
<path fill-rule="evenodd" clip-rule="evenodd" d="M5.44363 14.0757C3.29102 18.3004 3.29102 23.831 3.29102 34.892V44.1087C3.29102 55.1697 3.29102 60.7003 5.44363 64.9248C7.33713 68.6411 10.3585 71.6626 14.0747 73.5559C18.2995 75.7087 23.83 75.7087 34.891 75.7087H44.1077C55.1687 75.7087 60.6993 75.7087 64.9239 73.5559C68.6402 71.6626 71.6616 68.6411 73.5549 64.9248C75.7077 60.7003 75.7077 55.1697 75.7077 44.1087V34.892C75.7077 23.831 75.7077 18.3004 73.5549 14.0757C71.6616 10.3595 68.6402 7.33811 64.9239 5.44461C60.6993 3.29199 55.1687 3.29199 44.1077 3.29199H34.891C23.83 3.29199 18.2995 3.29199 14.0747 5.44461C10.3585 7.33811 7.33713 10.3595 5.44363 14.0757ZM44.1077 9.87533H34.891C29.2519 9.87533 25.4184 9.88046 22.4554 10.1225C19.5691 10.3583 18.0931 10.7858 17.0635 11.3104C14.586 12.5727 12.5718 14.587 11.3094 17.0645C10.7848 18.0941 10.3574 19.5701 10.1216 22.4563C9.87948 25.4194 9.87435 29.2528 9.87435 34.892V44.1087C9.87435 49.7479 9.87948 53.5811 10.1216 56.5443C10.3574 59.4307 10.7848 60.9067 11.3094 61.9363C12.5718 64.4136 14.586 66.4278 17.0635 67.6902C18.0931 68.2149 19.5691 68.6424 22.4554 68.8781C25.4184 69.1201 29.2519 69.1253 34.891 69.1253H44.1077C49.747 69.1253 53.5801 69.1201 56.5433 68.8781C59.4297 68.6424 60.9057 68.2149 61.9354 67.6902C64.4127 66.4278 66.4268 64.4136 67.6892 61.9363C68.2139 60.9067 68.6415 59.4307 68.8772 56.5443C69.1191 53.5811 69.1244 49.7479 69.1244 44.1087V34.892C69.1244 29.2528 69.1191 25.4194 68.8772 22.4563C68.6415 19.5701 68.2139 18.0941 67.6892 17.0645C66.4268 14.587 64.4127 12.5727 61.9354 11.3104C60.9057 10.7858 59.4297 10.3583 56.5433 10.1225C53.5801 9.88046 49.747 9.87533 44.1077 9.87533Z" fill="#F06437"/>
</svg>
