<svg width="79" height="79" viewBox="0 0 79 79" fill="none" xmlns="http://www.w3.org/2000/svg">
<path d="M21.3955 26.333C24.1224 26.333 26.333 24.1224 26.333 21.3955C26.333 18.6686 24.1224 16.458 21.3955 16.458C18.6686 16.458 16.458 18.6686 16.458 21.3955C16.458 24.1224 18.6686 26.333 21.3955 26.333Z" fill="#F06437"/>
<path d="M16.458 32.9167C16.458 31.0987 17.9318 29.625 19.7497 29.625H23.0413C24.8593 29.625 26.333 31.0987 26.333 32.9167V59.25C26.333 61.068 24.8593 62.5417 23.0413 62.5417H19.7497C17.9318 62.5417 16.458 61.068 16.458 59.25V32.9167Z" fill="#F06437"/>
<path d="M36.2087 62.5417H39.5003C41.3183 62.5417 42.792 61.068 42.792 59.25V44.4375C42.792 39.5 52.667 36.2083 52.667 42.7917V59.2513C52.667 61.0693 54.1407 62.5417 55.9587 62.5417H59.2503C61.0683 62.5417 62.542 61.068 62.542 59.25V39.5C62.542 32.9167 57.6045 29.625 51.0212 29.625C44.4378 29.625 42.792 34.5625 42.792 34.5625V32.9167C42.792 31.0987 41.3183 29.625 39.5003 29.625H36.2087C34.3907 29.625 32.917 31.0987 32.917 32.9167V59.25C32.917 61.068 34.3907 62.5417 36.2087 62.5417Z" fill="#F06437"/>
<path fill-rule="evenodd" clip-rule="evenodd" d="M65.8337 3.29199C71.2876 3.29199 75.7087 7.71319 75.7087 13.167V65.8337C75.7087 71.2876 71.2876 75.7087 65.8337 75.7087H13.167C7.71319 75.7087 3.29199 71.2876 3.29199 65.8337V13.167C3.29199 7.71319 7.71319 3.29199 13.167 3.29199H65.8337ZM65.8337 9.87533C67.6516 9.87533 69.1253 11.3491 69.1253 13.167V65.8337C69.1253 67.6516 67.6516 69.1253 65.8337 69.1253H13.167C11.3491 69.1253 9.87533 67.6516 9.87533 65.8337V13.167C9.87533 11.3491 11.3491 9.87533 13.167 9.87533H65.8337Z" fill="#F06437"/>
</svg>
