<svg width="201" height="39" viewBox="0 0 201 39" fill="none" xmlns="http://www.w3.org/2000/svg">
<path d="M26.875 14.4062C26.375 13.8021 25.8021 13.3646 25.1562 13.0938C24.5104 12.8229 23.8438 12.6875 23.1562 12.6875H23.0312V9.59375H23.0625C24.3125 9.59375 25.4792 9.80208 26.5625 10.2188C27.6458 10.6354 28.6146 11.2604 29.4688 12.0938L26.875 14.4062ZM13.4688 21.375C13.4688 19.5833 13.6771 18 14.0938 16.625C14.5104 15.2292 15.0833 14.0521 15.8125 13.0938C16.5417 12.1146 17.4167 11.3438 18.4375 10.7812C19.4583 10.2188 20.5625 9.86458 21.75 9.71875V12.8438C21.125 13.0104 20.5417 13.2917 20 13.6875C19.4792 14.0833 19.0104 14.6354 18.5938 15.3438C18.1979 16.0312 17.8854 16.875 17.6562 17.875C17.4271 18.8542 17.3021 20.0208 17.2812 21.375C17.3021 22.7292 17.4271 23.9167 17.6562 24.9375C17.8854 25.9583 18.1979 26.8438 18.5938 27.5938C19.0104 28.3229 19.4792 28.9062 20 29.3438C20.5417 29.7812 21.125 30.0833 21.75 30.25V33.0938C20.5625 32.9479 19.4583 32.5938 18.4375 32.0312C17.4167 31.4479 16.5417 30.6667 15.8125 29.6875C15.0833 28.7083 14.5104 27.5312 14.0938 26.1562C13.6771 24.7604 13.4688 23.1667 13.4688 21.375ZM30.6562 21.125V30.0312C30.1771 30.6354 29.6354 31.1354 29.0312 31.5312C28.4479 31.9062 27.8229 32.2188 27.1562 32.4688C26.5104 32.7188 25.8333 32.8958 25.125 33C24.4375 33.1042 23.75 33.1562 23.0625 33.1562H23.0312V30.4062C23.2812 30.4062 23.5833 30.3958 23.9375 30.375C24.3125 30.3333 24.6875 30.2812 25.0625 30.2188C25.4583 30.1354 25.8229 30.0312 26.1562 29.9062C26.5104 29.7812 26.7708 29.6042 26.9375 29.375V23.6875H23.0312V21.125H30.6562Z" fill="white"/>
<path d="M95.375 8.71875V33H91.7812L91.5625 30.9062V8.71875H95.375ZM79.5625 23.9375C79.5625 22.3125 79.7812 20.9479 80.2188 19.8438C80.6771 18.7396 81.2604 17.8438 81.9688 17.1562C82.6771 16.4688 83.4583 15.9792 84.3125 15.6875C85.1875 15.375 86.0417 15.2188 86.875 15.2188C87.5208 15.2188 88.1354 15.2917 88.7188 15.4375C89.3021 15.5833 89.8229 15.7917 90.2812 16.0625V19.375C89.9271 19 89.5312 18.6979 89.0938 18.4688C88.6562 18.2396 88.1667 18.125 87.625 18.125C86.9792 18.125 86.4062 18.2917 85.9062 18.625C85.4062 18.9375 84.9792 19.375 84.625 19.9375C84.2917 20.5 84.0312 21.1458 83.8438 21.875C83.6562 22.6042 83.5625 23.3854 83.5625 24.2188C83.5625 25.0521 83.6667 25.8333 83.875 26.5625C84.0833 27.2708 84.3646 27.8958 84.7188 28.4375C85.0729 28.9792 85.5 29.4062 86 29.7188C86.5208 30.0312 87.0833 30.1875 87.6875 30.1875C88.7083 30.1875 89.5729 29.7812 90.2812 28.9688V32.2188C89.7812 32.4896 89.1979 32.7188 88.5312 32.9062C87.8854 33.0729 87.1979 33.1562 86.4688 33.1562C85.6354 33.1562 84.8125 33.0104 84 32.7188C83.2083 32.4062 82.5 31.9062 81.875 31.2188C81.0833 30.3229 80.5 29.2188 80.125 27.9062C79.75 26.5729 79.5625 25.25 79.5625 23.9375ZM108.25 11.3438C107.833 11.3438 107.479 11.4479 107.188 11.6562C106.917 11.8646 106.688 12.1562 106.5 12.5312C106.312 12.9062 106.177 13.3438 106.094 13.8438C106.01 14.3229 105.958 14.8333 105.938 15.375H108.656V17.9375H105.875V19.4375V33H102.062V19.4375V17.9375H99.75V15.375H102.125C102.188 14.4792 102.312 13.625 102.5 12.8125C102.688 11.9792 102.979 11.2604 103.375 10.6562C103.792 10.0312 104.344 9.53125 105.031 9.15625C105.74 8.78125 106.625 8.59375 107.688 8.59375C108 8.59375 108.333 8.625 108.688 8.6875C109.042 8.72917 109.385 8.79167 109.719 8.875C110.073 8.9375 110.396 9.02083 110.688 9.125C110.979 9.22917 111.208 9.34375 111.375 9.46875L110.156 11.7188C109.865 11.5521 109.51 11.4479 109.094 11.4062C108.698 11.3646 108.417 11.3438 108.25 11.3438ZM119.219 33H115.406V15.375H119.219V33ZM119.562 9.75C119.562 10.375 119.344 10.9062 118.906 11.3438C118.469 11.7604 117.938 11.9688 117.312 11.9688C116.688 11.9688 116.156 11.75 115.719 11.3125C115.302 10.875 115.094 10.3542 115.094 9.75C115.094 9.125 115.312 8.59375 115.75 8.15625C116.188 7.71875 116.708 7.5 117.312 7.5C117.938 7.5 118.469 7.71875 118.906 8.15625C119.344 8.59375 119.562 9.125 119.562 9.75ZM136.25 19.9375C135.938 19.5625 135.5 19.2188 134.938 18.9062C134.396 18.5729 133.667 18.375 132.75 18.3125V15.3125C133.896 15.375 134.875 15.625 135.688 16.0625C136.521 16.4792 137.271 17.0938 137.938 17.9062L136.25 19.9375ZM132.75 30.0312C133.5 29.9479 134.135 29.7708 134.656 29.5C135.198 29.2083 135.708 28.875 136.188 28.5L137.594 30.5312C136.948 31.3438 136.25 31.9688 135.5 32.4062C134.75 32.8229 133.833 33.0625 132.75 33.125V30.0312ZM124.031 24.1875C124.031 23 124.198 21.8854 124.531 20.8438C124.885 19.8021 125.396 18.8854 126.062 18.0938C126.729 17.3021 127.51 16.6667 128.406 16.1875C129.323 15.6875 130.344 15.3958 131.469 15.3125V18.3438C130.427 18.5729 129.594 19.2188 128.969 20.2812C128.344 21.3229 128.031 22.5938 128.031 24.0938C128.031 24.8646 128.104 25.5938 128.25 26.2812C128.417 26.9479 128.646 27.5417 128.938 28.0625C129.229 28.5833 129.583 29.0208 130 29.375C130.438 29.7292 130.927 29.9479 131.469 30.0312V33.125C130.323 33.0625 129.292 32.7917 128.375 32.3125C127.458 31.8125 126.677 31.1667 126.031 30.375C125.385 29.5625 124.885 28.625 124.531 27.5625C124.198 26.5 124.031 25.375 124.031 24.1875ZM145.719 27.6875C145.719 28.625 145.906 29.3229 146.281 29.7812C146.677 30.2396 147.24 30.5104 147.969 30.5938V33.125C147.885 33.1458 147.75 33.1562 147.562 33.1562C146.854 33.1562 146.167 33.0625 145.5 32.875C144.854 32.6875 144.281 32.3854 143.781 31.9688C143.281 31.5521 142.885 31 142.594 30.3125C142.323 29.625 142.188 28.7812 142.188 27.7812C142.188 26.8229 142.385 26 142.781 25.3125C143.198 24.6042 143.719 24.0312 144.344 23.5938C144.99 23.1354 145.719 22.8021 146.531 22.5938C147.344 22.3646 148.167 22.25 149 22.25H150.375V24.4688H149.688C149.271 24.4688 148.833 24.5104 148.375 24.5938C147.917 24.6771 147.49 24.8333 147.094 25.0625C146.698 25.2917 146.365 25.625 146.094 26.0625C145.844 26.4792 145.719 27.0208 145.719 27.6875ZM155.438 27.7812C155.438 27.9479 155.448 28.1979 155.469 28.5312C155.49 28.8438 155.531 29.1667 155.594 29.5C155.656 29.8333 155.75 30.1354 155.875 30.4062C156.021 30.6771 156.208 30.8542 156.438 30.9375L155.438 33.0312C155.167 33.0312 154.875 32.9688 154.562 32.8438C154.271 32.7188 153.979 32.5417 153.688 32.3125C153.417 32.0833 153.177 31.8333 152.969 31.5625C152.781 31.2708 152.635 30.9583 152.531 30.625C152.323 31.1458 151.906 31.6146 151.281 32.0312C150.677 32.4271 150 32.7188 149.25 32.9062V30.5312C149.75 30.4271 150.198 30.2292 150.594 29.9375C151.01 29.625 151.365 29.2604 151.656 28.8438V22.25C151.656 21.2292 151.604 20.4167 151.5 19.8125C151.396 19.2083 151.219 18.7708 150.969 18.5C150.719 18.2083 150.406 18.0312 150.031 17.9688C149.677 17.8854 149.25 17.8438 148.75 17.8438C148.292 17.8438 147.854 17.9062 147.438 18.0312C147.042 18.1354 146.667 18.2708 146.312 18.4375C145.979 18.5833 145.677 18.75 145.406 18.9375C145.156 19.125 144.969 19.2708 144.844 19.375L143.438 17.2188C143.646 16.9896 143.958 16.7604 144.375 16.5312C144.792 16.2812 145.271 16.0625 145.812 15.875C146.354 15.6875 146.938 15.5417 147.562 15.4375C148.208 15.3125 148.875 15.25 149.562 15.25C150.188 15.25 150.792 15.3125 151.375 15.4375C151.979 15.5625 152.521 15.7708 153 16.0625C153.5 16.3542 153.927 16.75 154.281 17.25C154.656 17.7292 154.917 18.3333 155.062 19.0625C155.208 19.7917 155.302 20.5312 155.344 21.2812C155.406 22.0104 155.438 22.7396 155.438 23.4688V27.5312V27.7812ZM176.094 8.71875V33H172.5L172.281 30.9062V8.71875H176.094ZM160.281 23.9375C160.281 22.3125 160.5 20.9479 160.938 19.8438C161.396 18.7396 161.979 17.8438 162.688 17.1562C163.396 16.4688 164.177 15.9792 165.031 15.6875C165.906 15.375 166.76 15.2188 167.594 15.2188C168.24 15.2188 168.854 15.2917 169.438 15.4375C170.021 15.5833 170.542 15.7917 171 16.0625V19.375C170.646 19 170.25 18.6979 169.812 18.4688C169.375 18.2396 168.885 18.125 168.344 18.125C167.698 18.125 167.125 18.2917 166.625 18.625C166.125 18.9375 165.698 19.375 165.344 19.9375C165.01 20.5 164.75 21.1458 164.562 21.875C164.375 22.6042 164.281 23.3854 164.281 24.2188C164.281 25.0521 164.385 25.8333 164.594 26.5625C164.802 27.2708 165.083 27.8958 165.438 28.4375C165.792 28.9792 166.219 29.4062 166.719 29.7188C167.24 30.0312 167.802 30.1875 168.406 30.1875C169.427 30.1875 170.292 29.7812 171 28.9688V32.2188C170.5 32.4896 169.917 32.7188 169.25 32.9062C168.604 33.0729 167.917 33.1562 167.188 33.1562C166.354 33.1562 165.531 33.0104 164.719 32.7188C163.927 32.4062 163.219 31.9062 162.594 31.2188C161.802 30.3229 161.219 29.2188 160.844 27.9062C160.469 26.5729 160.281 25.25 160.281 23.9375ZM189.719 15.2812C190.865 15.3438 191.906 15.625 192.844 16.125C193.781 16.6042 194.562 17.25 195.188 18.0625C195.833 18.8542 196.333 19.7812 196.688 20.8438C197.042 21.9062 197.219 23.0417 197.219 24.25C197.219 25.4583 197.031 26.5938 196.656 27.6562C196.302 28.6979 195.802 29.6146 195.156 30.4062C194.51 31.1771 193.719 31.8021 192.781 32.2812C191.844 32.7604 190.823 33.0417 189.719 33.125V30.125C190.76 29.8958 191.604 29.2396 192.25 28.1562C192.917 27.0729 193.25 25.7708 193.25 24.25C193.25 23.4792 193.167 22.7604 193 22.0938C192.854 21.4062 192.625 20.7917 192.312 20.25C192 19.7083 191.625 19.2604 191.188 18.9062C190.75 18.5521 190.26 18.3229 189.719 18.2188V15.2812ZM181 24.1875C181 22.9792 181.177 21.8542 181.531 20.8125C181.885 19.7708 182.385 18.8646 183.031 18.0938C183.698 17.3021 184.49 16.6667 185.406 16.1875C186.323 15.7083 187.333 15.4167 188.438 15.3125V18.2188C187.396 18.4479 186.562 19.1042 185.938 20.1875C185.312 21.2708 185 22.5729 185 24.0938C185 24.8646 185.073 25.5938 185.219 26.2812C185.385 26.9688 185.615 27.5833 185.906 28.125C186.198 28.6667 186.552 29.1146 186.969 29.4688C187.406 29.8229 187.896 30.0417 188.438 30.125V33.125C187.292 33.0417 186.26 32.7604 185.344 32.2812C184.427 31.7812 183.646 31.1354 183 30.3438C182.354 29.5521 181.854 28.625 181.5 27.5625C181.167 26.5 181 25.375 181 24.1875Z" fill="white"/>
<path d="M46.2515 19.9123H48.1445C48.6466 19.9123 49.1281 20.1489 49.4831 20.57C49.8381 20.9911 50.0376 21.5623 50.0376 22.1579C50.0376 22.7535 49.8381 23.3246 49.4831 23.7458C49.1281 24.1669 48.6466 24.4035 48.1445 24.4035H46.2515V26.6491C46.2515 27.2447 46.0521 27.8159 45.697 28.237C45.342 28.6581 44.8605 28.8947 44.3585 28.8947C43.8564 28.8947 43.3749 28.6581 43.0199 28.237C42.6649 27.8159 42.4654 27.2447 42.4654 26.6491V24.4035H40.5724C40.0703 24.4035 39.5888 24.1669 39.2338 23.7458C38.8788 23.3246 38.6794 22.7535 38.6794 22.1579C38.6794 21.5623 38.8788 20.9911 39.2338 20.57C39.5888 20.1489 40.0703 19.9123 40.5724 19.9123H42.4654V17.6667C42.4654 17.0711 42.6649 16.4999 43.0199 16.0788C43.3749 15.6576 43.8564 15.421 44.3585 15.421C44.8605 15.421 45.342 15.6576 45.697 16.0788C46.0521 16.4999 46.2515 17.0711 46.2515 17.6667V19.9123ZM44.3585 8.6842H55.9508H67.0749C68.9695 8.68415 70.834 9.24632 72.4987 10.3195C74.1634 11.3927 75.5753 12.9428 76.6059 14.8288C77.6365 16.7147 78.2531 18.8764 78.3994 21.1172C78.5457 23.358 78.2172 25.6067 77.4438 27.6584C76.6703 29.7101 75.4765 31.4996 73.971 32.8642C72.4655 34.2287 70.6962 35.1248 68.8241 35.4709C66.9521 35.817 65.0368 35.602 63.2527 34.8457C61.4686 34.0893 59.8723 32.8155 58.6092 31.1403H52.8241C51.561 32.8155 49.9647 34.0893 48.1806 34.8457C46.3965 35.602 44.4812 35.817 42.6092 35.4709C40.7372 35.1248 38.9678 34.2287 37.4624 32.8642C35.9569 31.4996 34.763 29.7101 33.9896 27.6584C33.2161 25.6067 32.8876 23.358 33.0339 21.1172C33.1803 18.8764 33.7968 16.7147 34.8274 14.8288C35.858 12.9428 37.2699 11.3927 38.9346 10.3195C40.5993 9.24632 42.4638 8.68415 44.3585 8.6842ZM44.3585 13.1754C43.0953 13.1754 41.8522 13.5503 40.7424 14.2658C39.6326 14.9814 38.6913 16.0149 38.0043 17.2723C37.3172 18.5297 36.9063 19.971 36.8089 21.465C36.7114 22.9589 36.9306 24.4581 37.4464 25.8259C37.9622 27.1937 38.7583 28.3867 39.7621 29.2962C40.7659 30.2058 41.9456 30.803 43.1937 31.0334C44.4418 31.2639 45.7187 31.1204 46.9081 30.6158C48.0975 30.1113 49.1616 29.2618 50.0035 28.1447L51.1317 26.6491H60.3016L61.4298 28.1447C62.2717 29.2618 63.3358 30.1113 64.5252 30.6158C65.7146 31.1204 66.9915 31.2639 68.2396 31.0334C69.4878 30.803 70.6674 30.2058 71.6713 29.2962C72.6751 28.3867 73.4711 27.1937 73.9869 25.8259C74.5028 24.4581 74.7219 22.9589 74.6245 21.465C74.527 19.971 74.1161 18.5297 73.4291 17.2723C72.742 16.0149 71.8007 14.9814 70.6909 14.2658C69.5811 13.5503 68.338 13.1754 67.0749 13.1754H44.3585ZM67.0749 19.9123C66.5728 19.9123 66.0913 19.6757 65.7363 19.2545C65.3813 18.8334 65.1818 18.2622 65.1818 17.6667C65.1818 17.0711 65.3813 16.4999 65.7363 16.0788C66.0913 15.6576 66.5728 15.421 67.0749 15.421C67.5769 15.421 68.0584 15.6576 68.4134 16.0788C68.7685 16.4999 68.9679 17.0711 68.9679 17.6667C68.9679 18.2622 68.7685 18.8334 68.4134 19.2545C68.0584 19.6757 67.5769 19.9123 67.0749 19.9123ZM63.2888 24.4035C62.7867 24.4035 62.3052 24.1669 61.9502 23.7458C61.5952 23.3246 61.3958 22.7535 61.3958 22.1579C61.3958 21.5623 61.5952 20.9911 61.9502 20.57C62.3052 20.1489 62.7867 19.9123 63.2888 19.9123C63.7909 19.9123 64.2724 20.1489 64.6274 20.57C64.9824 20.9911 65.1818 21.5623 65.1818 22.1579C65.1818 22.7535 64.9824 23.3246 64.6274 23.7458C64.2724 24.1669 63.7909 24.4035 63.2888 24.4035ZM70.8609 24.4035C70.3589 24.4035 69.8774 24.1669 69.5224 23.7458C69.1673 23.3246 68.9679 22.7535 68.9679 22.1579C68.9679 21.5623 69.1673 20.9911 69.5224 20.57C69.8774 20.1489 70.3589 19.9123 70.8609 19.9123C71.363 19.9123 71.8445 20.1489 72.1995 20.57C72.5545 20.9911 72.754 21.5623 72.754 22.1579C72.754 22.7535 72.5545 23.3246 72.1995 23.7458C71.8445 24.1669 71.363 24.4035 70.8609 24.4035ZM67.0749 28.8947C66.5728 28.8947 66.0913 28.6581 65.7363 28.237C65.3813 27.8159 65.1818 27.2447 65.1818 26.6491C65.1818 26.0535 65.3813 25.4824 65.7363 25.0612C66.0913 24.6401 66.5728 24.4035 67.0749 24.4035C67.5769 24.4035 68.0584 24.6401 68.4134 25.0612C68.7685 25.4824 68.9679 26.0535 68.9679 26.6491C68.9679 27.2447 68.7685 27.8159 68.4134 28.237C68.0584 28.6581 67.5769 28.8947 67.0749 28.8947Z" fill="white"/>
<path d="M46.2515 19.9123H48.1445C48.6466 19.9123 49.1281 20.1489 49.4831 20.57C49.8381 20.9911 50.0376 21.5623 50.0376 22.1579C50.0376 22.7535 49.8381 23.3246 49.4831 23.7458C49.1281 24.1669 48.6466 24.4035 48.1445 24.4035H46.2515V26.6491C46.2515 27.2447 46.0521 27.8159 45.697 28.237C45.342 28.6581 44.8605 28.8947 44.3585 28.8947C43.8564 28.8947 43.3749 28.6581 43.0199 28.237C42.6649 27.8159 42.4654 27.2447 42.4654 26.6491V24.4035H40.5724C40.0703 24.4035 39.5888 24.1669 39.2338 23.7458C38.8788 23.3246 38.6794 22.7535 38.6794 22.1579C38.6794 21.5623 38.8788 20.9911 39.2338 20.57C39.5888 20.1489 40.0703 19.9123 40.5724 19.9123H42.4654V17.6667C42.4654 17.0711 42.6649 16.4999 43.0199 16.0788C43.3749 15.6576 43.8564 15.421 44.3585 15.421C44.8605 15.421 45.342 15.6576 45.697 16.0788C46.0521 16.4999 46.2515 17.0711 46.2515 17.6667V19.9123ZM44.3585 8.6842H55.9508H67.0749C68.9695 8.68415 70.834 9.24632 72.4987 10.3195C74.1634 11.3927 75.5753 12.9428 76.6059 14.8288C77.6365 16.7147 78.2531 18.8764 78.3994 21.1172C78.5457 23.358 78.2172 25.6067 77.4438 27.6584C76.6703 29.7101 75.4765 31.4996 73.971 32.8642C72.4655 34.2287 70.6962 35.1248 68.8241 35.4709C66.9521 35.817 65.0368 35.602 63.2527 34.8457C61.4686 34.0893 59.8723 32.8155 58.6092 31.1403H52.8241C51.561 32.8155 49.9647 34.0893 48.1806 34.8457C46.3965 35.602 44.4812 35.817 42.6092 35.4709C40.7372 35.1248 38.9678 34.2287 37.4624 32.8642C35.9569 31.4996 34.763 29.7101 33.9896 27.6584C33.2161 25.6067 32.8876 23.358 33.0339 21.1172C33.1803 18.8764 33.7968 16.7147 34.8274 14.8288C35.858 12.9428 37.2699 11.3927 38.9346 10.3195C40.5993 9.24632 42.4638 8.68415 44.3585 8.6842ZM44.3585 13.1754C43.0953 13.1754 41.8522 13.5503 40.7424 14.2658C39.6326 14.9814 38.6913 16.0149 38.0043 17.2723C37.3172 18.5297 36.9063 19.971 36.8089 21.465C36.7114 22.9589 36.9306 24.4581 37.4464 25.8259C37.9622 27.1937 38.7583 28.3867 39.7621 29.2962C40.7659 30.2058 41.9456 30.803 43.1937 31.0334C44.4418 31.2639 45.7187 31.1204 46.9081 30.6158C48.0975 30.1113 49.1616 29.2618 50.0035 28.1447L51.1317 26.6491H60.3016L61.4298 28.1447C62.2717 29.2618 63.3358 30.1113 64.5252 30.6158C65.7146 31.1204 66.9915 31.2639 68.2396 31.0334C69.4878 30.803 70.6674 30.2058 71.6713 29.2962C72.6751 28.3867 73.4711 27.1937 73.9869 25.8259C74.5028 24.4581 74.7219 22.9589 74.6245 21.465C74.527 19.971 74.1161 18.5297 73.4291 17.2723C72.742 16.0149 71.8007 14.9814 70.6909 14.2658C69.5811 13.5503 68.338 13.1754 67.0749 13.1754H44.3585ZM67.0749 19.9123C66.5728 19.9123 66.0913 19.6757 65.7363 19.2545C65.3813 18.8334 65.1818 18.2622 65.1818 17.6667C65.1818 17.0711 65.3813 16.4999 65.7363 16.0788C66.0913 15.6576 66.5728 15.421 67.0749 15.421C67.5769 15.421 68.0584 15.6576 68.4134 16.0788C68.7685 16.4999 68.9679 17.0711 68.9679 17.6667C68.9679 18.2622 68.7685 18.8334 68.4134 19.2545C68.0584 19.6757 67.5769 19.9123 67.0749 19.9123ZM63.2888 24.4035C62.7867 24.4035 62.3052 24.1669 61.9502 23.7458C61.5952 23.3246 61.3958 22.7535 61.3958 22.1579C61.3958 21.5623 61.5952 20.9911 61.9502 20.57C62.3052 20.1489 62.7867 19.9123 63.2888 19.9123C63.7909 19.9123 64.2724 20.1489 64.6274 20.57C64.9824 20.9911 65.1818 21.5623 65.1818 22.1579C65.1818 22.7535 64.9824 23.3246 64.6274 23.7458C64.2724 24.1669 63.7909 24.4035 63.2888 24.4035ZM70.8609 24.4035C70.3589 24.4035 69.8774 24.1669 69.5224 23.7458C69.1673 23.3246 68.9679 22.7535 68.9679 22.1579C68.9679 21.5623 69.1673 20.9911 69.5224 20.57C69.8774 20.1489 70.3589 19.9123 70.8609 19.9123C71.363 19.9123 71.8445 20.1489 72.1995 20.57C72.5545 20.9911 72.754 21.5623 72.754 22.1579C72.754 22.7535 72.5545 23.3246 72.1995 23.7458C71.8445 24.1669 71.363 24.4035 70.8609 24.4035ZM67.0749 28.8947C66.5728 28.8947 66.0913 28.6581 65.7363 28.237C65.3813 27.8159 65.1818 27.2447 65.1818 26.6491C65.1818 26.0535 65.3813 25.4824 65.7363 25.0612C66.0913 24.6401 66.5728 24.4035 67.0749 24.4035C67.5769 24.4035 68.0584 24.6401 68.4134 25.0612C68.7685 25.4824 68.9679 26.0535 68.9679 26.6491C68.9679 27.2447 68.7685 27.8159 68.4134 28.237C68.0584 28.6581 67.5769 28.8947 67.0749 28.8947Z" fill="#F06437"/>
</svg>
