<svg width="455" height="80" viewBox="0 0 455 80" fill="none" xmlns="http://www.w3.org/2000/svg">
<path d="M62.7656 27.1367C61.8281 26.0039 60.7539 25.1836 59.543 24.6758C58.332 24.168 57.082 23.9141 55.793 23.9141H55.5586V18.1133H55.6172C57.9609 18.1133 60.1484 18.5039 62.1797 19.2852C64.2109 20.0664 66.0273 21.2383 67.6289 22.8008L62.7656 27.1367ZM37.6289 40.2031C37.6289 36.8438 38.0195 33.875 38.8008 31.2969C39.582 28.6797 40.6562 26.4727 42.0234 24.6758C43.3906 22.8398 45.0312 21.3945 46.9453 20.3398C48.8594 19.2852 50.9297 18.6211 53.1562 18.3477V24.207C51.9844 24.5195 50.8906 25.0469 49.875 25.7891C48.8984 26.5312 48.0195 27.5664 47.2383 28.8945C46.4961 30.1836 45.9102 31.7656 45.4805 33.6406C45.0508 35.4766 44.8164 37.6641 44.7773 40.2031C44.8164 42.7422 45.0508 44.9688 45.4805 46.8828C45.9102 48.7969 46.4961 50.457 47.2383 51.8633C48.0195 53.2305 48.8984 54.3242 49.875 55.1445C50.8906 55.9648 51.9844 56.5312 53.1562 56.8438V62.1758C50.9297 61.9023 48.8594 61.2383 46.9453 60.1836C45.0312 59.0898 43.3906 57.625 42.0234 55.7891C40.6562 53.9531 39.582 51.7461 38.8008 49.168C38.0195 46.5508 37.6289 43.5625 37.6289 40.2031ZM69.8555 39.7344V56.4336C68.957 57.5664 67.9414 58.5039 66.8086 59.2461C65.7148 59.9492 64.543 60.5352 63.293 61.0039C62.082 61.4727 60.8125 61.8047 59.4844 62C58.1953 62.1953 56.9062 62.293 55.6172 62.293H55.5586V57.1367C56.0273 57.1367 56.5938 57.1172 57.2578 57.0781C57.9609 57 58.6641 56.9023 59.3672 56.7852C60.1094 56.6289 60.793 56.4336 61.418 56.1992C62.082 55.9648 62.5703 55.6328 62.8828 55.2031V44.5391H55.5586V39.7344H69.8555Z" fill="white"/>
<path d="M209.145 16.4727V62H202.406L201.996 58.0742V16.4727H209.145ZM179.496 45.0078C179.496 41.9609 179.906 39.4023 180.727 37.332C181.586 35.2617 182.68 33.582 184.008 32.293C185.336 31.0039 186.801 30.0859 188.402 29.5391C190.043 28.9531 191.645 28.6602 193.207 28.6602C194.418 28.6602 195.57 28.7969 196.664 29.0703C197.758 29.3437 198.734 29.7344 199.594 30.2422V36.4531C198.93 35.75 198.188 35.1836 197.367 34.7539C196.547 34.3242 195.629 34.1094 194.613 34.1094C193.402 34.1094 192.328 34.4219 191.391 35.0469C190.453 35.6328 189.652 36.4531 188.988 37.5078C188.363 38.5625 187.875 39.7734 187.523 41.1406C187.172 42.5078 186.996 43.9727 186.996 45.5352C186.996 47.0977 187.191 48.5625 187.582 49.9297C187.973 51.2578 188.5 52.4297 189.164 53.4453C189.828 54.4609 190.629 55.2617 191.566 55.8477C192.543 56.4336 193.598 56.7266 194.73 56.7266C196.645 56.7266 198.266 55.9648 199.594 54.4414V60.5352C198.656 61.043 197.562 61.4727 196.312 61.8242C195.102 62.1367 193.812 62.293 192.445 62.293C190.883 62.293 189.34 62.0195 187.816 61.4727C186.332 60.8867 185.004 59.9492 183.832 58.6602C182.348 56.9805 181.254 54.9102 180.551 52.4492C179.848 49.9492 179.496 47.4688 179.496 45.0078ZM233.285 21.3945C232.504 21.3945 231.84 21.5898 231.293 21.9805C230.785 22.3711 230.355 22.918 230.004 23.6211C229.652 24.3242 229.398 25.1445 229.242 26.082C229.086 26.9805 228.988 27.9375 228.949 28.9531H234.047V33.7578H228.832V36.5703V62H221.684V36.5703V33.7578H217.348V28.9531H221.801C221.918 27.2734 222.152 25.6719 222.504 24.1484C222.855 22.5859 223.402 21.2383 224.145 20.1055C224.926 18.9336 225.961 17.9961 227.25 17.293C228.578 16.5898 230.238 16.2383 232.23 16.2383C232.816 16.2383 233.441 16.2969 234.105 16.4141C234.77 16.4922 235.414 16.6094 236.039 16.7656C236.703 16.8828 237.309 17.0391 237.855 17.2344C238.402 17.4297 238.832 17.6445 239.145 17.8789L236.859 22.0977C236.312 21.7852 235.648 21.5898 234.867 21.5117C234.125 21.4336 233.598 21.3945 233.285 21.3945ZM253.852 62H246.703V28.9531H253.852V62ZM254.496 18.4062C254.496 19.5781 254.086 20.5742 253.266 21.3945C252.445 22.1758 251.449 22.5664 250.277 22.5664C249.105 22.5664 248.109 22.1562 247.289 21.3359C246.508 20.5156 246.117 19.5391 246.117 18.4062C246.117 17.2344 246.527 16.2383 247.348 15.418C248.168 14.5977 249.145 14.1875 250.277 14.1875C251.449 14.1875 252.445 14.5977 253.266 15.418C254.086 16.2383 254.496 17.2344 254.496 18.4062ZM285.785 37.5078C285.199 36.8047 284.379 36.1602 283.324 35.5742C282.309 34.9492 280.941 34.5781 279.223 34.4609V28.8359C281.371 28.9531 283.207 29.4219 284.73 30.2422C286.293 31.0234 287.699 32.1758 288.949 33.6992L285.785 37.5078ZM279.223 56.4336C280.629 56.2773 281.82 55.9453 282.797 55.4375C283.812 54.8906 284.77 54.2656 285.668 53.5625L288.305 57.3711C287.094 58.8945 285.785 60.0664 284.379 60.8867C282.973 61.668 281.254 62.1172 279.223 62.2344V56.4336ZM262.875 45.4766C262.875 43.25 263.188 41.1602 263.812 39.207C264.477 37.2539 265.434 35.5352 266.684 34.0508C267.934 32.5664 269.398 31.375 271.078 30.4766C272.797 29.5391 274.711 28.9922 276.82 28.8359V34.5195C274.867 34.9492 273.305 36.1602 272.133 38.1523C270.961 40.1055 270.375 42.4883 270.375 45.3008C270.375 46.7461 270.512 48.1133 270.785 49.4023C271.098 50.6523 271.527 51.7656 272.074 52.7422C272.621 53.7188 273.285 54.5391 274.066 55.2031C274.887 55.8672 275.805 56.2773 276.82 56.4336V62.2344C274.672 62.1172 272.738 61.6094 271.02 60.7109C269.301 59.7734 267.836 58.5625 266.625 57.0781C265.414 55.5547 264.477 53.7969 263.812 51.8047C263.188 49.8125 262.875 47.7031 262.875 45.4766ZM303.539 52.0391C303.539 53.7969 303.891 55.1055 304.594 55.9648C305.336 56.8242 306.391 57.332 307.758 57.4883V62.2344C307.602 62.2734 307.348 62.293 306.996 62.293C305.668 62.293 304.379 62.1172 303.129 61.7656C301.918 61.4141 300.844 60.8477 299.906 60.0664C298.969 59.2852 298.227 58.25 297.68 56.9609C297.172 55.6719 296.918 54.0898 296.918 52.2148C296.918 50.418 297.289 48.875 298.031 47.5859C298.812 46.2578 299.789 45.1836 300.961 44.3633C302.172 43.5039 303.539 42.8789 305.062 42.4883C306.586 42.0586 308.129 41.8438 309.691 41.8438H312.27V46.0039H310.98C310.199 46.0039 309.379 46.082 308.52 46.2383C307.66 46.3945 306.859 46.6875 306.117 47.1172C305.375 47.5469 304.75 48.1719 304.242 48.9922C303.773 49.7734 303.539 50.7891 303.539 52.0391ZM321.762 52.2148C321.762 52.5273 321.781 52.9961 321.82 53.6211C321.859 54.207 321.938 54.8125 322.055 55.4375C322.172 56.0625 322.348 56.6289 322.582 57.1367C322.855 57.6445 323.207 57.9766 323.637 58.1328L321.762 62.0586C321.254 62.0586 320.707 61.9414 320.121 61.707C319.574 61.4727 319.027 61.1406 318.48 60.7109C317.973 60.2812 317.523 59.8125 317.133 59.3047C316.781 58.7578 316.508 58.1719 316.312 57.5469C315.922 58.5234 315.141 59.4023 313.969 60.1836C312.836 60.9258 311.566 61.4727 310.16 61.8242V57.3711C311.098 57.1758 311.938 56.8047 312.68 56.2578C313.461 55.6719 314.125 54.9883 314.672 54.207V41.8438C314.672 39.9297 314.574 38.4062 314.379 37.2734C314.184 36.1406 313.852 35.3203 313.383 34.8125C312.914 34.2656 312.328 33.9336 311.625 33.8164C310.961 33.6602 310.16 33.582 309.223 33.582C308.363 33.582 307.543 33.6992 306.762 33.9336C306.02 34.1289 305.316 34.3828 304.652 34.6953C304.027 34.9688 303.461 35.2812 302.953 35.6328C302.484 35.9844 302.133 36.2578 301.898 36.4531L299.262 32.4102C299.652 31.9805 300.238 31.5508 301.02 31.1211C301.801 30.6523 302.699 30.2422 303.715 29.8906C304.73 29.5391 305.824 29.2656 306.996 29.0703C308.207 28.8359 309.457 28.7188 310.746 28.7188C311.918 28.7188 313.051 28.8359 314.145 29.0703C315.277 29.3047 316.293 29.6953 317.191 30.2422C318.129 30.7891 318.93 31.5312 319.594 32.4688C320.297 33.3672 320.785 34.5 321.059 35.8672C321.332 37.2344 321.508 38.6211 321.586 40.0273C321.703 41.3945 321.762 42.7617 321.762 44.1289V51.7461V52.2148ZM360.492 16.4727V62H353.754L353.344 58.0742V16.4727H360.492ZM330.844 45.0078C330.844 41.9609 331.254 39.4023 332.074 37.332C332.934 35.2617 334.027 33.582 335.355 32.293C336.684 31.0039 338.148 30.0859 339.75 29.5391C341.391 28.9531 342.992 28.6602 344.555 28.6602C345.766 28.6602 346.918 28.7969 348.012 29.0703C349.105 29.3437 350.082 29.7344 350.941 30.2422V36.4531C350.277 35.75 349.535 35.1836 348.715 34.7539C347.895 34.3242 346.977 34.1094 345.961 34.1094C344.75 34.1094 343.676 34.4219 342.738 35.0469C341.801 35.6328 341 36.4531 340.336 37.5078C339.711 38.5625 339.223 39.7734 338.871 41.1406C338.52 42.5078 338.344 43.9727 338.344 45.5352C338.344 47.0977 338.539 48.5625 338.93 49.9297C339.32 51.2578 339.848 52.4297 340.512 53.4453C341.176 54.4609 341.977 55.2617 342.914 55.8477C343.891 56.4336 344.945 56.7266 346.078 56.7266C347.992 56.7266 349.613 55.9648 350.941 54.4414V60.5352C350.004 61.043 348.91 61.4727 347.66 61.8242C346.449 62.1367 345.16 62.293 343.793 62.293C342.23 62.293 340.688 62.0195 339.164 61.4727C337.68 60.8867 336.352 59.9492 335.18 58.6602C333.695 56.9805 332.602 54.9102 331.898 52.4492C331.195 49.9492 330.844 47.4688 330.844 45.0078ZM386.039 28.7773C388.188 28.8945 390.141 29.4219 391.898 30.3594C393.656 31.2578 395.121 32.4688 396.293 33.9922C397.504 35.4766 398.441 37.2148 399.105 39.207C399.77 41.1992 400.102 43.3281 400.102 45.5938C400.102 47.8594 399.75 49.9883 399.047 51.9805C398.383 53.9336 397.445 55.6523 396.234 57.1367C395.023 58.582 393.539 59.7539 391.781 60.6523C390.023 61.5508 388.109 62.0781 386.039 62.2344V56.6094C387.992 56.1797 389.574 54.9492 390.785 52.918C392.035 50.8867 392.66 48.4453 392.66 45.5938C392.66 44.1484 392.504 42.8008 392.191 41.5508C391.918 40.2617 391.488 39.1094 390.902 38.0938C390.316 37.0781 389.613 36.2383 388.793 35.5742C387.973 34.9102 387.055 34.4805 386.039 34.2852V28.7773ZM369.691 45.4766C369.691 43.2109 370.023 41.1016 370.688 39.1484C371.352 37.1953 372.289 35.4961 373.5 34.0508C374.75 32.5664 376.234 31.375 377.953 30.4766C379.672 29.5781 381.566 29.0313 383.637 28.8359V34.2852C381.684 34.7148 380.121 35.9453 378.949 37.9766C377.777 40.0078 377.191 42.4492 377.191 45.3008C377.191 46.7461 377.328 48.1133 377.602 49.4023C377.914 50.6914 378.344 51.8438 378.891 52.8594C379.438 53.875 380.102 54.7148 380.883 55.3789C381.703 56.043 382.621 56.4531 383.637 56.6094V62.2344C381.488 62.0781 379.555 61.5508 377.836 60.6523C376.117 59.7148 374.652 58.5039 373.441 57.0195C372.23 55.5352 371.293 53.7969 370.629 51.8047C370.004 49.8125 369.691 47.7031 369.691 45.4766Z" fill="white"/>
<g clip-path="url(#clip0_400_12)">
<path d="M104.814 36.7109H109.099C110.235 36.7109 111.325 37.2465 112.129 38.1998C112.933 39.1531 113.384 40.4461 113.384 41.7943C113.384 43.1425 112.933 44.4355 112.129 45.3888C111.325 46.3421 110.235 46.8777 109.099 46.8777H104.814V51.961C104.814 53.3092 104.362 54.6022 103.558 55.5555C102.755 56.5088 101.665 57.0444 100.528 57.0444C99.3918 57.0444 98.3019 56.5088 97.4982 55.5555C96.6946 54.6022 96.2431 53.3092 96.2431 51.961V46.8777H91.9579C90.8214 46.8777 89.7314 46.3421 88.9278 45.3888C88.1241 44.4355 87.6727 43.1425 87.6727 41.7943C87.6727 40.4461 88.1241 39.1531 88.9278 38.1998C89.7314 37.2465 90.8214 36.7109 91.9579 36.7109H96.2431V31.6276C96.2431 30.2794 96.6946 28.9864 97.4982 28.0331C98.3019 27.0798 99.3918 26.5442 100.528 26.5442C101.665 26.5442 102.755 27.0798 103.558 28.0331C104.362 28.9864 104.814 30.2794 104.814 31.6276V36.7109ZM100.528 11.2942H126.77H151.951C156.24 11.2941 160.461 12.5666 164.229 14.996C167.997 17.4254 171.193 20.9344 173.526 25.2035C175.859 29.4726 177.255 34.3662 177.586 39.4386C177.917 44.5111 177.174 49.6012 175.423 54.2456C173.672 58.89 170.97 62.9411 167.562 66.0299C164.154 69.1187 160.149 71.1472 155.911 71.9307C151.673 72.7141 147.338 72.2276 143.299 70.5154C139.26 68.8032 135.647 65.9198 132.788 62.1277H119.692C116.833 65.9198 113.219 68.8032 109.18 70.5154C105.142 72.2276 100.806 72.7141 96.5685 71.9307C92.3309 71.1472 88.3257 69.1187 84.9178 66.0299C81.5098 62.9411 78.8074 58.89 77.0565 54.2456C75.3056 49.6012 74.562 44.5111 74.8932 39.4386C75.2245 34.3662 76.6201 29.4726 78.9531 25.2035C81.286 20.9344 84.4822 17.4254 88.2505 14.996C92.0188 12.5666 96.2395 11.2941 100.528 11.2942ZM100.528 21.4609C97.669 21.4609 94.855 22.3094 92.3427 23.9292C89.8305 25.549 87.6997 27.8886 86.1445 30.7349C84.5893 33.5813 83.659 36.8439 83.4384 40.2258C83.2179 43.6076 83.714 47.0012 84.8816 50.0974C86.0492 53.1937 87.8513 55.8942 90.1236 57.9532C92.3959 60.0121 95.0664 61.364 97.8917 61.8857C100.717 62.4075 103.608 62.0825 106.3 60.9404C108.992 59.7982 111.401 57.8752 113.307 55.3465L115.861 51.961H136.619L139.173 55.3465C141.078 57.8752 143.487 59.7982 146.179 60.9404C148.872 62.0825 151.762 62.4075 154.588 61.8857C157.413 61.364 160.083 60.0121 162.356 57.9532C164.628 55.8942 166.43 53.1937 167.598 50.0974C168.765 47.0012 169.262 43.6076 169.041 40.2258C168.82 36.8439 167.89 33.5813 166.335 30.7349C164.78 27.8886 162.649 25.549 160.137 23.9292C157.624 22.3094 154.81 21.4609 151.951 21.4609H100.528ZM151.951 36.7109C150.815 36.7109 149.725 36.1754 148.921 35.2221C148.117 34.2688 147.666 32.9758 147.666 31.6276C147.666 30.2794 148.117 28.9864 148.921 28.0331C149.725 27.0798 150.815 26.5442 151.951 26.5442C153.088 26.5442 154.178 27.0798 154.981 28.0331C155.785 28.9864 156.236 30.2794 156.236 31.6276C156.236 32.9758 155.785 34.2688 154.981 35.2221C154.178 36.1754 153.088 36.7109 151.951 36.7109ZM143.381 46.8777C142.244 46.8777 141.154 46.3421 140.35 45.3888C139.547 44.4355 139.095 43.1425 139.095 41.7943C139.095 40.4461 139.547 39.1531 140.35 38.1998C141.154 37.2465 142.244 36.7109 143.381 36.7109C144.517 36.7109 145.607 37.2465 146.411 38.1998C147.214 39.1531 147.666 40.4461 147.666 41.7943C147.666 43.1425 147.214 44.4355 146.411 45.3888C145.607 46.3421 144.517 46.8777 143.381 46.8777ZM160.522 46.8777C159.385 46.8777 158.295 46.3421 157.491 45.3888C156.688 44.4355 156.236 43.1425 156.236 41.7943C156.236 40.4461 156.688 39.1531 157.491 38.1998C158.295 37.2465 159.385 36.7109 160.522 36.7109C161.658 36.7109 162.748 37.2465 163.552 38.1998C164.355 39.1531 164.807 40.4461 164.807 41.7943C164.807 43.1425 164.355 44.4355 163.552 45.3888C162.748 46.3421 161.658 46.8777 160.522 46.8777ZM151.951 57.0444C150.815 57.0444 149.725 56.5088 148.921 55.5555C148.117 54.6022 147.666 53.3092 147.666 51.961C147.666 50.6128 148.117 49.3199 148.921 48.3665C149.725 47.4132 150.815 46.8777 151.951 46.8777C153.088 46.8777 154.178 47.4132 154.981 48.3665C155.785 49.3199 156.236 50.6128 156.236 51.961C156.236 53.3092 155.785 54.6022 154.981 55.5555C154.178 56.5088 153.088 57.0444 151.951 57.0444Z" fill="white"/>
<path d="M104.814 36.7109H109.099C110.235 36.7109 111.325 37.2465 112.129 38.1998C112.933 39.1531 113.384 40.4461 113.384 41.7943C113.384 43.1425 112.933 44.4355 112.129 45.3888C111.325 46.3421 110.235 46.8777 109.099 46.8777H104.814V51.961C104.814 53.3092 104.362 54.6022 103.558 55.5555C102.755 56.5088 101.665 57.0444 100.528 57.0444C99.3918 57.0444 98.3019 56.5088 97.4982 55.5555C96.6946 54.6022 96.2431 53.3092 96.2431 51.961V46.8777H91.9579C90.8214 46.8777 89.7314 46.3421 88.9278 45.3888C88.1241 44.4355 87.6727 43.1425 87.6727 41.7943C87.6727 40.4461 88.1241 39.1531 88.9278 38.1998C89.7314 37.2465 90.8214 36.7109 91.9579 36.7109H96.2431V31.6276C96.2431 30.2794 96.6946 28.9864 97.4982 28.0331C98.3019 27.0798 99.3918 26.5442 100.528 26.5442C101.665 26.5442 102.755 27.0798 103.558 28.0331C104.362 28.9864 104.814 30.2794 104.814 31.6276V36.7109ZM100.528 11.2942H126.77H151.951C156.24 11.2941 160.461 12.5666 164.229 14.996C167.997 17.4254 171.193 20.9344 173.526 25.2035C175.859 29.4726 177.255 34.3662 177.586 39.4386C177.917 44.5111 177.174 49.6012 175.423 54.2456C173.672 58.89 170.97 62.9411 167.562 66.0299C164.154 69.1187 160.149 71.1472 155.911 71.9307C151.673 72.7141 147.338 72.2276 143.299 70.5154C139.26 68.8032 135.647 65.9198 132.788 62.1277H119.692C116.833 65.9198 113.219 68.8032 109.18 70.5154C105.142 72.2276 100.806 72.7141 96.5685 71.9307C92.3309 71.1472 88.3257 69.1187 84.9178 66.0299C81.5098 62.9411 78.8074 58.89 77.0565 54.2456C75.3056 49.6012 74.562 44.5111 74.8932 39.4386C75.2245 34.3662 76.6201 29.4726 78.9531 25.2035C81.286 20.9344 84.4822 17.4254 88.2505 14.996C92.0188 12.5666 96.2395 11.2941 100.528 11.2942ZM100.528 21.4609C97.669 21.4609 94.855 22.3094 92.3427 23.9292C89.8305 25.549 87.6997 27.8886 86.1445 30.7349C84.5893 33.5813 83.659 36.8439 83.4384 40.2258C83.2179 43.6076 83.714 47.0012 84.8816 50.0974C86.0492 53.1937 87.8513 55.8942 90.1236 57.9532C92.3959 60.0121 95.0664 61.364 97.8917 61.8857C100.717 62.4075 103.608 62.0825 106.3 60.9404C108.992 59.7982 111.401 57.8752 113.307 55.3465L115.861 51.961H136.619L139.173 55.3465C141.078 57.8752 143.487 59.7982 146.179 60.9404C148.872 62.0825 151.762 62.4075 154.588 61.8857C157.413 61.364 160.083 60.0121 162.356 57.9532C164.628 55.8942 166.43 53.1937 167.598 50.0974C168.765 47.0012 169.262 43.6076 169.041 40.2258C168.82 36.8439 167.89 33.5813 166.335 30.7349C164.78 27.8886 162.649 25.549 160.137 23.9292C157.624 22.3094 154.81 21.4609 151.951 21.4609H100.528ZM151.951 36.7109C150.815 36.7109 149.725 36.1754 148.921 35.2221C148.117 34.2688 147.666 32.9758 147.666 31.6276C147.666 30.2794 148.117 28.9864 148.921 28.0331C149.725 27.0798 150.815 26.5442 151.951 26.5442C153.088 26.5442 154.178 27.0798 154.981 28.0331C155.785 28.9864 156.236 30.2794 156.236 31.6276C156.236 32.9758 155.785 34.2688 154.981 35.2221C154.178 36.1754 153.088 36.7109 151.951 36.7109ZM143.381 46.8777C142.244 46.8777 141.154 46.3421 140.35 45.3888C139.547 44.4355 139.095 43.1425 139.095 41.7943C139.095 40.4461 139.547 39.1531 140.35 38.1998C141.154 37.2465 142.244 36.7109 143.381 36.7109C144.517 36.7109 145.607 37.2465 146.411 38.1998C147.214 39.1531 147.666 40.4461 147.666 41.7943C147.666 43.1425 147.214 44.4355 146.411 45.3888C145.607 46.3421 144.517 46.8777 143.381 46.8777ZM160.522 46.8777C159.385 46.8777 158.295 46.3421 157.491 45.3888C156.688 44.4355 156.236 43.1425 156.236 41.7943C156.236 40.4461 156.688 39.1531 157.491 38.1998C158.295 37.2465 159.385 36.7109 160.522 36.7109C161.658 36.7109 162.748 37.2465 163.552 38.1998C164.355 39.1531 164.807 40.4461 164.807 41.7943C164.807 43.1425 164.355 44.4355 163.552 45.3888C162.748 46.3421 161.658 46.8777 160.522 46.8777ZM151.951 57.0444C150.815 57.0444 149.725 56.5088 148.921 55.5555C148.117 54.6022 147.666 53.3092 147.666 51.961C147.666 50.6128 148.117 49.3199 148.921 48.3665C149.725 47.4132 150.815 46.8777 151.951 46.8777C153.088 46.8777 154.178 47.4132 154.981 48.3665C155.785 49.3199 156.236 50.6128 156.236 51.961C156.236 53.3092 155.785 54.6022 154.981 55.5555C154.178 56.5088 153.088 57.0444 151.951 57.0444Z" fill="#F06437"/>
</g>
<defs>
<clipPath id="clip0_400_12">
<rect width="106.393" height="72.4378" fill="white" transform="translate(74.8164 7.48166)"/>
</clipPath>
</defs>
</svg>
