<svg width="79" height="79" viewBox="0 0 79 79" fill="none" xmlns="http://www.w3.org/2000/svg">
<path fill-rule="evenodd" clip-rule="evenodd" d="M65.118 12.8977C66.2651 12.6258 67.065 12.3585 67.7204 12.0777C68.6387 11.6842 69.4001 11.2129 70.6032 10.419C71.6141 9.75183 72.9097 9.69373 73.9762 10.2677C75.0427 10.8417 75.7079 11.9551 75.7079 13.1663C75.7079 16.7244 75.2645 19.6406 74.2382 22.207C73.3745 24.3657 72.1612 26.1191 70.7099 27.7149C70.097 38.7852 66.8925 47.4788 61.9935 54.0651C56.9158 60.8917 50.16 65.2633 43.0385 67.7117C35.9377 70.1524 28.4351 70.6979 21.7137 69.8713C15.0365 69.0504 8.86419 66.8397 4.56202 63.4937C3.38386 62.5773 2.96971 60.9828 3.55299 59.6089C4.13627 58.235 5.57094 57.4255 7.04851 57.6369C11.2815 58.2415 15.3562 57.2791 18.7068 55.9031C18.0472 55.5443 17.4253 55.1559 16.8473 54.7557C13.7942 52.6421 11.3308 49.7727 10.2221 47.5551C9.76328 46.6378 9.75854 45.5584 10.2093 44.6371C10.4418 44.1614 10.7818 43.7562 11.1947 43.4471C6.73689 39.768 4.93707 34.6795 4.93707 31.2705C4.93707 30.2568 5.40409 29.2997 6.20304 28.676C6.53899 28.4137 6.91786 28.2226 7.31724 28.1075C6.98366 27.1307 6.7248 26.1439 6.5275 25.1885C5.65268 20.9526 5.73033 16.1715 6.68119 12.368C7.00657 11.0664 8.08933 10.0926 9.41801 9.90644C10.7467 9.72036 12.0553 10.3593 12.7258 11.5214C16.2726 17.6692 22.8147 21.427 28.9033 23.653C31.7658 24.6995 34.4169 25.3664 36.4041 25.7764C36.833 21.7586 37.9548 18.4453 39.6767 15.8136C41.9483 12.3416 45.1165 10.2874 48.5188 9.37141C54.3868 7.79174 60.8981 9.59143 65.118 12.8977ZM35.3797 32.2863C33.1246 31.8334 30.0252 31.0726 26.6427 29.836C22.1752 28.2027 16.9875 25.6559 12.642 21.711C12.7198 22.4369 12.8302 23.1567 12.9748 23.857C13.7031 27.3834 15.0563 29.3584 16.2842 29.9723C17.7859 30.7232 18.4818 32.4839 17.8993 34.0587C17.1106 36.1907 15.0362 36.3654 13.1515 35.8944C14.6674 38.167 17.392 40.433 21.9366 41.1904C23.504 41.4517 24.661 42.7954 24.6866 44.3843C24.7123 45.9732 23.5992 47.3534 22.041 47.6651L19.1757 48.2382C19.614 48.619 20.0886 48.9926 20.5946 49.3428C22.8886 50.9311 25.1919 51.6161 27.1804 51.119C28.6697 50.7467 30.2186 51.4531 30.9137 52.8221C31.6087 54.1908 31.2654 55.8584 30.086 56.8409C27.9665 58.6053 25.4911 60.021 23.0102 61.1958C21.8456 61.7475 20.544 62.2919 19.1304 62.7712C20.2176 63.0033 21.3489 63.1935 22.5172 63.3374C28.3453 64.054 34.8323 63.5707 40.8982 61.4858C46.9434 59.4078 52.531 55.756 56.7114 50.1361C60.8856 44.5238 63.7987 36.7572 64.1894 26.2114C64.22 25.3811 64.5637 24.5931 65.1512 24.0056C66.6312 22.5255 67.8543 20.829 68.4561 18.8097C67.4031 19.138 66.2174 19.4221 64.8053 19.6921C63.7338 19.8969 62.6308 19.5577 61.8596 18.7865C59.3431 16.27 54.3661 14.615 50.2301 15.7284C48.2837 16.2524 46.5145 17.3868 45.1856 19.4178C43.8291 21.4915 42.7913 24.722 42.7913 29.6248C42.7913 30.5563 42.3966 31.4441 41.7053 32.0682C40.0661 33.5478 37.3073 32.6733 35.3797 32.2863Z" fill="#F06437"/>
</svg>
