<svg width="92" height="84" viewBox="0 0 92 84" fill="none" xmlns="http://www.w3.org/2000/svg">
<path fill-rule="evenodd" clip-rule="evenodd" d="M12.9038 44.2499C12.9038 26.8135 26.7101 12.6786 43.741 12.6786C60.7718 12.6786 74.5782 26.8135 74.5782 44.2499C74.5782 61.6862 60.7718 75.8213 43.741 75.8213C37.6744 75.8213 32.0274 74.0317 27.2629 70.9411C26.3762 70.3661 25.2897 70.2123 24.2839 70.5195L13.8386 73.7112L17.7714 64.2896C18.2363 63.176 18.1417 61.9005 17.518 60.8717C14.5933 56.0465 12.9038 50.3558 12.9038 44.2499ZM43.741 5.25C22.7028 5.25 5.64802 22.7109 5.64802 44.2499C5.64802 51.0771 7.36452 57.5036 10.3811 63.0913L4.12593 78.0758C3.57295 79.4007 3.81806 80.9332 4.75482 82.0081C5.69159 83.0834 7.15106 83.5069 8.49944 83.0946L24.8229 78.1074C30.3992 81.3797 36.8614 83.2498 43.741 83.2498C64.7792 83.2498 81.834 65.789 81.834 44.2499C81.834 22.7109 64.7792 5.25 43.741 5.25ZM52.0579 52.356L47.2901 55.7943C45.0572 54.492 42.5884 52.6743 40.112 50.1389C37.5376 47.5032 35.629 44.7822 34.2218 42.2862L37.2517 39.6531C38.552 38.5232 38.9079 36.6183 38.1068 35.0767L34.2462 27.6481C33.7263 26.6478 32.7889 25.9452 31.7005 25.74C30.612 25.5347 29.4917 25.8494 28.6578 26.5944L27.5132 27.6172C24.7606 30.0768 23.1326 34.1185 24.4819 38.2109C25.8807 42.4533 28.8659 49.1305 34.9815 55.3916C41.561 62.1278 48.2443 64.7806 52.1526 65.8109C55.3016 66.6407 58.2816 65.5283 60.3814 63.7766L62.5274 61.9863C63.4452 61.2208 63.9404 60.0445 63.8541 58.8355C63.7674 57.6265 63.11 56.5367 62.0927 55.9161L56.004 52.2018C54.7742 51.4519 53.2287 51.5121 52.0579 52.356Z" fill="black"/>
</svg>
